<?xml version="1.0" encoding="UTF-8" standalone="no"?>
<svg
   id="svg"
   version="1.1"
   viewBox="0 0 200 200"
   width="200"
   height="200"
   xmlns="http://www.w3.org/2000/svg">
  <defs>
    <linearGradient id="brand" x1="0" y1="0" x2="200" y2="200" gradientUnits="userSpaceOnUse">
      <stop offset="0" stop-color="#2e545d" />
      <stop offset="0.2" stop-color="#3d6a73" />
      <stop offset="0.4" stop-color="#847aa2" />
      <stop offset="0.6" stop-color="#6f6690" />
      <stop offset="0.8" stop-color="#d28fa8" />
      <stop offset="1" stop-color="#b97594" />
    </linearGradient>
  </defs>
  <g transform="translate(0.21425875,-0.10300042)">
    <path
       d="M 77.785741 0.10300042 C 74.864191 0.10300042 73.099301 1.7578145 74.236913 4.9604223 L 77.520116 14.198704 L 47.238866 14.198704 C 42.115613 14.198704 37.990819 18.860035 37.990819 24.651829 L 37.990819 33.749485 L 27.275976 33.749485 C 21.602691 33.749485 17.035741 38.412769 17.035741 44.204563 L 17.035741 52.710422 L 14.697851 52.710422 C 6.4362431 52.710422 -0.21425875 57.373705 -0.21425875 63.1655 L -0.21425875 200.103 L 18.191991 200.103 L 18.191991 97.019016 C 18.191991 97.019016 17.423144 90.528264 22.598241 90.542454 C 27.773339 90.556642 27.002538 97.019016 27.002538 97.019016 L 27.002538 200.103 L 52.307226 200.103 L 52.307226 121.64792 C 52.752751 62.385902 77.033625 62.752587 99.785741 62.729954 C 122.53785 62.707271 147.29588 61.896782 147.2623 121.64792 L 147.2623 200.103 L 173.73691 200.103 L 173.73691 97.019016 C 173.73691 97.019016 172.96806 90.528264 178.14316 90.542454 C 183.31826 90.556642 182.54941 97.019016 182.54941 97.019016 L 182.54941 200.103 L 199.78574 200.103 L 199.78574 63.1655 C 199.78574 57.373705 193.13524 52.710422 184.87363 52.710422 L 182.53574 52.710422 L 182.53574 44.204563 C 182.53574 38.412769 177.9688 33.749485 172.29551 33.749485 L 161.58066 33.749485 L 161.58066 24.651829 C 161.58066 18.860035 157.45588 14.198704 152.33262 14.198704 L 122.05137 14.198704 L 125.33262 4.9604223 C 126.47023 1.7578145 124.70729 0.10300042 121.78574 0.10300042 L 99.785741 0.10300042 L 77.785741 0.10300042 z"
       fill="url(#brand)"
       style="stroke:none;stroke-width:19.9999;stroke-linecap:round;stroke-linejoin:round" />
  </g>
</svg>
