<?xml version="1.0" encoding="UTF-8" standalone="no"?>
<svg
   id="svg"
   version="1.1"
   viewBox="0 0 200 200"
   width="200"
   height="200"
   sodipodi:docname="logo_bedtime.svg"
   inkscape:version="1.4.3 (0d15f75, 2025-12-25)"
   inkscape:export-filename="logo_mono_bedtime.png"
   inkscape:export-xdpi="96"
   inkscape:export-ydpi="96"
   xmlns:inkscape="http://www.inkscape.org/namespaces/inkscape"
   xmlns:sodipodi="http://sodipodi.sourceforge.net/DTD/sodipodi-0.dtd"
   xmlns="http://www.w3.org/2000/svg"
   xmlns:svg="http://www.w3.org/2000/svg">
  <defs
     id="defs10">
    <inkscape:path-effect
       effect="fillet_chamfer"
       id="path-effect15"
       is_visible="true"
       lpeversion="1"
       nodesatellites_param="F,0,0,1,0,0,0,1 @ F,0,0,1,0,0,0,1 @ F,0,0,1,0,0,0,1 @ F,0,0,1,0,0,0,1 @ F,0,0,1,0,0,0,1 @ F,0,0,1,0,0,0,1"
       radius="0"
       unit="px"
       method="auto"
       mode="F"
       chamfer_steps="1"
       flexible="false"
       use_knot_distance="true"
       apply_no_radius="true"
       apply_with_radius="true"
       only_selected="false"
       hide_knots="false" />
    <inkscape:path-effect
       effect="fillet_chamfer"
       id="path-effect13"
       is_visible="true"
       lpeversion="1"
       nodesatellites_param="F,0,0,1,0,0,0,1 @ F,0,0,1,0,0,0,1 @ F,0,0,1,0,0,0,1 @ F,0,0,1,0,0,0,1 @ F,0,0,1,0,0,0,1 @ F,0,0,1,0,0,0,1"
       radius="0"
       unit="px"
       method="auto"
       mode="F"
       chamfer_steps="1"
       flexible="false"
       use_knot_distance="true"
       apply_no_radius="true"
       apply_with_radius="true"
       only_selected="false"
       hide_knots="false" />
    <inkscape:path-effect
       effect="fillet_chamfer"
       id="path-effect12"
       is_visible="true"
       lpeversion="1"
       nodesatellites_param="F,0,0,1,0,0,0,1 @ F,0,0,1,0,0,0,1 @ F,0,0,1,0,0,0,1 @ F,0,0,1,0,0,0,1 @ F,0,0,1,0,0,0,1 @ F,0,0,1,0,0,0,1"
       radius="0"
       unit="px"
       method="auto"
       mode="F"
       chamfer_steps="1"
       flexible="false"
       use_knot_distance="true"
       apply_no_radius="true"
       apply_with_radius="true"
       only_selected="false"
       hide_knots="false" />
    <defs
       id="defs1" />
  </defs>
  <sodipodi:namedview
     id="namedview10"
     pagecolor="#ffffff"
     bordercolor="#000000"
     borderopacity="0.25"
     inkscape:showpageshadow="2"
     inkscape:pageopacity="0.0"
     inkscape:pagecheckerboard="0"
     inkscape:deskcolor="#d1d1d1"
     inkscape:zoom="0.71765053"
     inkscape:cx="112.17159"
     inkscape:cy="-5.5737435"
     inkscape:window-width="1253"
     inkscape:window-height="823"
     inkscape:window-x="390"
     inkscape:window-y="34"
     inkscape:window-maximized="0"
     inkscape:current-layer="g17"
     showguides="true" />
  <g
     id="g17"
     inkscape:label="logo"
     transform="translate(0.21425875,-0.10300042)">
    <path
       id="rect1-9"
       style="opacity:0.5;fill:#000000;fill-opacity:1;stroke:none;stroke-width:19.9999;stroke-linecap:round;stroke-linejoin:round;stroke-dasharray:none;stroke-opacity:1"
       d="M 77.785741 0.10300042 C 74.864191 0.10300042 73.099301 1.7578145 74.236913 4.9604223 L 77.520116 14.198704 L 47.238866 14.198704 C 42.115613 14.198704 37.990819 18.860035 37.990819 24.651829 L 37.990819 33.749485 L 27.275976 33.749485 C 21.602691 33.749485 17.035741 38.412769 17.035741 44.204563 L 17.035741 52.710422 L 14.697851 52.710422 C 6.4362431 52.710422 -0.21425875 57.373705 -0.21425875 63.1655 L -0.21425875 200.103 L 18.191991 200.103 L 18.191991 97.019016 C 18.191991 97.019016 17.423144 90.528264 22.598241 90.542454 C 27.773339 90.556642 27.002538 97.019016 27.002538 97.019016 L 27.002538 200.103 L 52.307226 200.103 L 52.307226 121.64792 C 52.752751 62.385902 77.033625 62.752587 99.785741 62.729954 C 122.53785 62.707271 147.29588 61.896782 147.2623 121.64792 L 147.2623 200.103 L 173.73691 200.103 L 173.73691 97.019016 C 173.73691 97.019016 172.96806 90.528264 178.14316 90.542454 C 183.31826 90.556642 182.54941 97.019016 182.54941 97.019016 L 182.54941 200.103 L 199.78574 200.103 L 199.78574 63.1655 C 199.78574 57.373705 193.13524 52.710422 184.87363 52.710422 L 182.53574 52.710422 L 182.53574 44.204563 C 182.53574 38.412769 177.9688 33.749485 172.29551 33.749485 L 161.58066 33.749485 L 161.58066 24.651829 C 161.58066 18.860035 157.45588 14.198704 152.33262 14.198704 L 122.05137 14.198704 L 125.33262 4.9604223 C 126.47023 1.7578145 124.70729 0.10300042 121.78574 0.10300042 L 99.785741 0.10300042 L 77.785741 0.10300042 z " />
    <path
       id="path1"
       style="fill:#1a1a1a;stroke-width:20;stroke-linecap:round;stroke-linejoin:round"
       d="m 114.83945,5.3500697 a 94.753639,94.753639 0 0 0 -94.753906,94.7519503 94.753639,94.753639 0 0 0 94.753906,94.75391 94.753639,94.753639 0 0 0 64.64649,-25.47852 73.852104,73.852104 0 0 1 -21.44922,3.1836 A 73.852104,73.852104 0 0 1 84.183201,98.709441 73.852104,73.852104 0 0 1 158.03672,24.857882 73.852104,73.852104 0 0 1 174.88828,26.805148 94.753639,94.753639 0 0 0 114.83945,5.3500697 Z" />
  </g>
</svg>
